<svg width="44" height="44" viewBox="0 0 44 44" fill="none" xmlns="http://www.w3.org/2000/svg">
<path d="M21.9883 29C23.9294 29 25.5833 28.3206 26.95 26.9618C28.3167 25.6029 29 23.9529 29 22.0117C29 20.0706 28.3206 18.4167 26.9618 17.05C25.6029 15.6833 23.9529 15 22.0117 15C20.0706 15 18.4167 15.6794 17.05 17.0383C15.6833 18.3971 15 20.0471 15 21.9883C15 23.9294 15.6794 25.5833 17.0383 26.95C18.3971 28.3167 20.0471 29 21.9883 29ZM22 32C19.2333 32 16.875 31.025 14.925 29.075C12.975 27.125 12 24.7667 12 22C12 19.2333 12.975 16.875 14.925 14.925C16.875 12.975 19.2333 12 22 12C24.7667 12 27.125 12.975 29.075 14.925C31.025 16.875 32 19.2333 32 22C32 24.7667 31.025 27.125 29.075 29.075C27.125 31.025 24.7667 32 22 32ZM1.5 23.5C1.075 23.5 0.71875 23.3554 0.43125 23.0663C0.14375 22.7771 0 22.4187 0 21.9913C0 21.5638 0.14375 21.2083 0.43125 20.925C0.71875 20.6417 1.075 20.5 1.5 20.5H6.5C6.925 20.5 7.28125 20.6446 7.56875 20.9338C7.85625 21.2229 8 21.5813 8 22.0087C8 22.4362 7.85625 22.7917 7.56875 23.075C7.28125 23.3583 6.925 23.5 6.5 23.5H1.5ZM37.5 23.5C37.075 23.5 36.7188 23.3554 36.4313 23.0663C36.1438 22.7771 36 22.4187 36 21.9913C36 21.5638 36.1438 21.2083 36.4313 20.925C36.7188 20.6417 37.075 20.5 37.5 20.5H42.5C42.925 20.5 43.2813 20.6446 43.5688 20.9338C43.8563 21.2229 44 21.5813 44 22.0087C44 22.4362 43.8563 22.7917 43.5688 23.075C43.2813 23.3583 42.925 23.5 42.5 23.5H37.5ZM21.9913 8C21.5638 8 21.2083 7.85625 20.925 7.56875C20.6417 7.28125 20.5 6.925 20.5 6.5V1.5C20.5 1.075 20.6446 0.71875 20.9338 0.43125C21.2229 0.14375 21.5813 0 22.0087 0C22.4362 0 22.7917 0.14375 23.075 0.43125C23.3583 0.71875 23.5 1.075 23.5 1.5V6.5C23.5 6.925 23.3554 7.28125 23.0663 7.56875C22.7771 7.85625 22.4187 8 21.9913 8ZM21.9913 44C21.5638 44 21.2083 43.8563 20.925 43.5688C20.6417 43.2813 20.5 42.925 20.5 42.5V37.5C20.5 37.075 20.6446 36.7188 20.9338 36.4313C21.2229 36.1438 21.5813 36 22.0087 36C22.4362 36 22.7917 36.1438 23.075 36.4313C23.3583 36.7188 23.5 37.075 23.5 37.5V42.5C23.5 42.925 23.3554 43.2813 23.0663 43.5688C22.7771 43.8563 22.4187 44 21.9913 44ZM10 12.1L7.15 9.3C6.85 9 6.70618 8.63995 6.71855 8.21985C6.73088 7.79972 6.87298 7.44138 7.14485 7.14485C7.44138 6.84828 7.79972 6.7 8.21985 6.7C8.63995 6.7 9 6.85 9.3 7.15L12.1 10C12.3667 10.3 12.5 10.65 12.5 11.05C12.5 11.45 12.3667 11.7917 12.1 12.075C11.8333 12.3583 11.4917 12.5 11.075 12.5C10.6583 12.5 10.3 12.3667 10 12.1ZM34.7 36.85L31.9 34C31.6333 33.7 31.5 33.3438 31.5 32.9313C31.5 32.5188 31.6417 32.175 31.925 31.9C32.2083 31.6 32.55 31.45 32.95 31.45C33.35 31.45 33.7 31.6 34 31.9L36.85 34.7C37.15 35 37.2938 35.3601 37.2815 35.7802C37.2691 36.2003 37.127 36.5586 36.8552 36.8552C36.5586 37.1517 36.2003 37.3 35.7802 37.3C35.3601 37.3 35 37.15 34.7 36.85ZM31.9 12.1C31.6 11.8 31.45 11.45 31.45 11.05C31.45 10.65 31.6 10.3 31.9 10L34.7 7.15C35 6.85 35.3601 6.70618 35.7802 6.71855C36.2003 6.73088 36.5586 6.87298 36.8552 7.14485C37.1517 7.44138 37.3 7.79972 37.3 8.21985C37.3 8.63995 37.15 9 36.85 9.3L34 12.1C33.7333 12.3667 33.3939 12.5 32.9818 12.5C32.5697 12.5 32.2091 12.3667 31.9 12.1ZM7.14485 36.8552C6.84828 36.5586 6.7 36.2003 6.7 35.7802C6.7 35.3601 6.85 35 7.15 34.7L10 31.9C10.2933 31.6 10.6417 31.45 11.045 31.45C11.4483 31.45 11.7935 31.6 12.0805 31.9C12.3935 32.2 12.55 32.55 12.55 32.95C12.55 33.35 12.4 33.7 12.1 34L9.3 36.85C9 37.15 8.63995 37.2938 8.21985 37.2815C7.79972 37.2691 7.44138 37.127 7.14485 36.8552Z" fill="#6F6F6F"/>
</svg>
